<svg id="visual" viewBox="0 0 900 600" width="900" height="600" xmlns="http://www.w3.org/2000/svg" xmlns:xlink="http://www.w3.org/1999/xlink" version="1.1"><path d="M0 180L21.5 175.3C43 170.7 86 161.3 128.8 151.7C171.7 142 214.3 132 257.2 140.7C300 149.3 343 176.7 385.8 190.5C428.7 204.3 471.3 204.7 514.2 205.2C557 205.7 600 206.3 642.8 200.7C685.7 195 728.3 183 771.2 174.5C814 166 857 161 878.5 158.5L900 156L900 0L878.5 0C857 0 814 0 771.2 0C728.3 0 685.7 0 642.8 0C600 0 557 0 514.2 0C471.3 0 428.7 0 385.8 0C343 0 300 0 257.2 0C214.3 0 171.7 0 128.8 0C86 0 43 0 21.5 0L0 0Z" fill="#0066FF" stroke-linecap="round" stroke-linejoin="miter"></path></svg>