<svg id="visual" viewBox="0 0 900 600" width="900" height="600" xmlns="http://www.w3.org/2000/svg" xmlns:xlink="http://www.w3.org/1999/xlink" version="1.1"><path d="M0 191L21.5 181.2C43 171.3 86 151.7 128.8 136.3C171.7 121 214.3 110 257.2 105.7C300 101.3 343 103.7 385.8 104.5C428.7 105.3 471.3 104.7 514.2 103.2C557 101.7 600 99.3 642.8 118.2C685.7 137 728.3 177 771.2 195.7C814 214.3 857 211.7 878.5 210.3L900 209L900 0L878.5 0C857 0 814 0 771.2 0C728.3 0 685.7 0 642.8 0C600 0 557 0 514.2 0C471.3 0 428.7 0 385.8 0C343 0 300 0 257.2 0C214.3 0 171.7 0 128.8 0C86 0 43 0 21.5 0L0 0Z" fill="#017ab3" stroke-linecap="round" stroke-linejoin="miter"></path></svg>