<svg id="visual" viewBox="0 0 900 600" width="900" height="600" xmlns="http://www.w3.org/2000/svg" xmlns:xlink="http://www.w3.org/1999/xlink" version="1.1"><path d="M0 117L21.5 128C43 139 86 161 128.8 168.8C171.7 176.7 214.3 170.3 257.2 164.2C300 158 343 152 385.8 145.7C428.7 139.3 471.3 132.7 514.2 140.7C557 148.7 600 171.3 642.8 176.7C685.7 182 728.3 170 771.2 158.2C814 146.3 857 134.7 878.5 128.8L900 123L900 0L878.5 0C857 0 814 0 771.2 0C728.3 0 685.7 0 642.8 0C600 0 557 0 514.2 0C471.3 0 428.7 0 385.8 0C343 0 300 0 257.2 0C214.3 0 171.7 0 128.8 0C86 0 43 0 21.5 0L0 0Z" fill="#FCAF3C" stroke-linecap="round" stroke-linejoin="miter"></path></svg>